<svg width="140" height="128" viewBox="0 0 140 128" fill="none" xmlns="http://www.w3.org/2000/svg">
<rect width="140" height="128" rx="10" fill="#89E4FF"/>
<path d="M9.47159 12.3636V24H7.01136V12.3636H9.47159ZM13.8707 18.9545V24H11.4503V15.2727H13.7571V16.8125H13.8594C14.0526 16.3049 14.3764 15.9034 14.831 15.608C15.2855 15.3087 15.8366 15.1591 16.4844 15.1591C17.0904 15.1591 17.6188 15.2917 18.0696 15.5568C18.5204 15.822 18.8707 16.2008 19.1207 16.6932C19.3707 17.1818 19.4957 17.7652 19.4957 18.4432V24H17.0753V18.875C17.0791 18.3409 16.9427 17.9242 16.6662 17.625C16.3897 17.322 16.009 17.1705 15.5241 17.1705C15.1984 17.1705 14.9105 17.2405 14.6605 17.3807C14.4143 17.5208 14.2211 17.7254 14.081 17.9943C13.9446 18.2595 13.8745 18.5795 13.8707 18.9545ZM26.0455 15.2727V17.0909H20.7898V15.2727H26.0455ZM21.983 13.1818H24.4034V21.3182C24.4034 21.5417 24.4375 21.7159 24.5057 21.8409C24.5739 21.9621 24.6686 22.0473 24.7898 22.0966C24.9148 22.1458 25.0587 22.1705 25.2216 22.1705C25.3352 22.1705 25.4489 22.161 25.5625 22.142C25.6761 22.1193 25.7633 22.1023 25.8239 22.0909L26.2045 23.892C26.0833 23.9299 25.9129 23.9735 25.6932 24.0227C25.4735 24.0758 25.2064 24.108 24.892 24.1193C24.3087 24.142 23.7973 24.0644 23.358 23.8864C22.9223 23.7083 22.5833 23.4318 22.3409 23.0568C22.0985 22.6818 21.9792 22.2083 21.983 21.6364V13.1818ZM31.5057 24.1705C30.608 24.1705 29.8352 23.9886 29.1875 23.625C28.5436 23.2576 28.0473 22.7386 27.6989 22.0682C27.3504 21.3939 27.1761 20.5966 27.1761 19.6761C27.1761 18.7784 27.3504 17.9905 27.6989 17.3125C28.0473 16.6345 28.5379 16.1061 29.1705 15.7273C29.8068 15.3485 30.553 15.1591 31.4091 15.1591C31.9848 15.1591 32.5208 15.2519 33.017 15.4375C33.517 15.6193 33.9527 15.8939 34.3239 16.2614C34.6989 16.6288 34.9905 17.0909 35.1989 17.6477C35.4072 18.2008 35.5114 18.8485 35.5114 19.5909V20.2557H28.142V18.7557H33.233C33.233 18.4072 33.1572 18.0985 33.0057 17.8295C32.8542 17.5606 32.6439 17.3504 32.375 17.1989C32.1098 17.0436 31.8011 16.9659 31.4489 16.9659C31.0814 16.9659 30.7557 17.0511 30.4716 17.2216C30.1913 17.3883 29.9716 17.6136 29.8125 17.8977C29.6534 18.178 29.572 18.4905 29.5682 18.8352V20.2614C29.5682 20.6932 29.6477 21.0663 29.8068 21.3807C29.9697 21.6951 30.1989 21.9375 30.4943 22.108C30.7898 22.2784 31.1402 22.3636 31.5455 22.3636C31.8144 22.3636 32.0606 22.3258 32.2841 22.25C32.5076 22.1742 32.6989 22.0606 32.858 21.9091C33.017 21.7576 33.1383 21.572 33.2216 21.3523L35.4602 21.5C35.3466 22.0379 35.1136 22.5076 34.7614 22.9091C34.4129 23.3068 33.9621 23.6174 33.4091 23.8409C32.8598 24.0606 32.2254 24.1705 31.5057 24.1705ZM37.0909 24V15.2727H39.4375V16.7955H39.5284C39.6875 16.2538 39.9545 15.8447 40.3295 15.5682C40.7045 15.2879 41.1364 15.1477 41.625 15.1477C41.7462 15.1477 41.8769 15.1553 42.017 15.1705C42.1572 15.1856 42.2803 15.2064 42.3864 15.233V17.3807C42.2727 17.3466 42.1155 17.3163 41.9148 17.2898C41.714 17.2633 41.5303 17.25 41.3636 17.25C41.0076 17.25 40.6894 17.3277 40.4091 17.483C40.1326 17.6345 39.9129 17.8466 39.75 18.1193C39.5909 18.392 39.5114 18.7064 39.5114 19.0625V24H37.0909ZM46.0582 18.9545V24H43.6378V15.2727H45.9446V16.8125H46.0469C46.2401 16.3049 46.5639 15.9034 47.0185 15.608C47.473 15.3087 48.0241 15.1591 48.6719 15.1591C49.2779 15.1591 49.8063 15.2917 50.2571 15.5568C50.7079 15.822 51.0582 16.2008 51.3082 16.6932C51.5582 17.1818 51.6832 17.7652 51.6832 18.4432V24H49.2628V18.875C49.2666 18.3409 49.1302 17.9242 48.8537 17.625C48.5772 17.322 48.1965 17.1705 47.7116 17.1705C47.3859 17.1705 47.098 17.2405 46.848 17.3807C46.6018 17.5208 46.4086 17.7254 46.2685 17.9943C46.1321 18.2595 46.062 18.5795 46.0582 18.9545ZM57.5682 24.1705C56.6705 24.1705 55.8977 23.9886 55.25 23.625C54.6061 23.2576 54.1098 22.7386 53.7614 22.0682C53.4129 21.3939 53.2386 20.5966 53.2386 19.6761C53.2386 18.7784 53.4129 17.9905 53.7614 17.3125C54.1098 16.6345 54.6004 16.1061 55.233 15.7273C55.8693 15.3485 56.6155 15.1591 57.4716 15.1591C58.0473 15.1591 58.5833 15.2519 59.0795 15.4375C59.5795 15.6193 60.0152 15.8939 60.3864 16.2614C60.7614 16.6288 61.053 17.0909 61.2614 17.6477C61.4697 18.2008 61.5739 18.8485 61.5739 19.5909V20.2557H54.2045V18.7557H59.2955C59.2955 18.4072 59.2197 18.0985 59.0682 17.8295C58.9167 17.5606 58.7064 17.3504 58.4375 17.1989C58.1723 17.0436 57.8636 16.9659 57.5114 16.9659C57.1439 16.9659 56.8182 17.0511 56.5341 17.2216C56.2538 17.3883 56.0341 17.6136 55.875 17.8977C55.7159 18.178 55.6345 18.4905 55.6307 18.8352V20.2614C55.6307 20.6932 55.7102 21.0663 55.8693 21.3807C56.0322 21.6951 56.2614 21.9375 56.5568 22.108C56.8523 22.2784 57.2027 22.3636 57.608 22.3636C57.8769 22.3636 58.1231 22.3258 58.3466 22.25C58.5701 22.1742 58.7614 22.0606 58.9205 21.9091C59.0795 21.7576 59.2008 21.572 59.2841 21.3523L61.5227 21.5C61.4091 22.0379 61.1761 22.5076 60.8239 22.9091C60.4754 23.3068 60.0246 23.6174 59.4716 23.8409C58.9223 24.0606 58.2879 24.1705 57.5682 24.1705ZM67.7955 15.2727V17.0909H62.5398V15.2727H67.7955ZM63.733 13.1818H66.1534V21.3182C66.1534 21.5417 66.1875 21.7159 66.2557 21.8409C66.3239 21.9621 66.4186 22.0473 66.5398 22.0966C66.6648 22.1458 66.8087 22.1705 66.9716 22.1705C67.0852 22.1705 67.1989 22.161 67.3125 22.142C67.4261 22.1193 67.5133 22.1023 67.5739 22.0909L67.9545 23.892C67.8333 23.9299 67.6629 23.9735 67.4432 24.0227C67.2235 24.0758 66.9564 24.108 66.642 24.1193C66.0587 24.142 65.5473 24.0644 65.108 23.8864C64.6723 23.7083 64.3333 23.4318 64.0909 23.0568C63.8485 22.6818 63.7292 22.2083 63.733 21.6364V13.1818Z" fill="white"/>
<path d="M21.0142 41.9091V71H14.8636V47.7472H14.6932L8.03125 51.9233V46.4688L15.233 41.9091H21.0142ZM38.5533 71.3977C36.5457 71.3977 34.7559 71.0284 33.1839 70.2898C31.6214 69.5511 30.3809 68.5331 29.4624 67.2358C28.5438 65.9384 28.0656 64.4517 28.0277 62.7756H33.9936C34.0599 63.9025 34.5334 64.8163 35.4141 65.517C36.2947 66.2178 37.3411 66.5682 38.5533 66.5682C39.5192 66.5682 40.3714 66.3551 41.1101 65.929C41.8582 65.4934 42.4406 64.892 42.8572 64.125C43.2834 63.3485 43.4964 62.4583 43.4964 61.4545C43.4964 60.4318 43.2786 59.5322 42.843 58.7557C42.4169 57.9792 41.825 57.3731 41.0675 56.9375C40.3099 56.5019 39.4434 56.2794 38.468 56.2699C37.6158 56.2699 36.7872 56.4451 35.9822 56.7955C35.1868 57.1458 34.5665 57.6241 34.1214 58.2301L28.6527 57.25L30.0305 41.9091H47.8146V46.9375H35.1016L34.3487 54.2244H34.5192C35.0305 53.5047 35.8023 52.9081 36.8345 52.4347C37.8667 51.9612 39.022 51.7244 40.3004 51.7244C42.0523 51.7244 43.6148 52.1364 44.9879 52.9602C46.361 53.7841 47.4453 54.9157 48.2408 56.3551C49.0362 57.785 49.4292 59.4328 49.4197 61.2983C49.4292 63.2585 48.9747 65.0009 48.0561 66.5256C47.147 68.0407 45.8733 69.2339 44.2351 70.1051C42.6063 70.9669 40.7124 71.3977 38.5533 71.3977ZM82.4276 51.3125C82.2287 50.6212 81.9493 50.0104 81.5895 49.4801C81.2296 48.9403 80.7893 48.4858 80.2685 48.1165C79.7571 47.7377 79.17 47.4489 78.5071 47.25C77.8537 47.0511 77.1293 46.9517 76.3338 46.9517C74.8471 46.9517 73.5402 47.321 72.4134 48.0597C71.2959 48.7983 70.4247 49.8731 69.7997 51.2841C69.1747 52.6856 68.8622 54.3996 68.8622 56.4261C68.8622 58.4527 69.17 60.1761 69.7855 61.5966C70.401 63.017 71.2723 64.1013 72.3991 64.8494C73.526 65.5881 74.8565 65.9574 76.3906 65.9574C77.7827 65.9574 78.9711 65.7112 79.956 65.2188C80.9503 64.7169 81.7079 64.0114 82.2287 63.1023C82.759 62.1932 83.0241 61.1184 83.0241 59.8778L84.2741 60.0625H76.7741V55.4318H88.9474V59.0966C88.9474 61.6534 88.4077 63.8504 87.3281 65.6875C86.2486 67.5152 84.7618 68.9261 82.8679 69.9205C80.974 70.9053 78.8054 71.3977 76.3622 71.3977C73.6349 71.3977 71.2391 70.7964 69.1747 69.5938C67.1103 68.3816 65.5005 66.6629 64.3452 64.4375C63.1993 62.2027 62.6264 59.5511 62.6264 56.483C62.6264 54.125 62.9673 52.0227 63.6491 50.1761C64.3404 48.3201 65.3063 46.7481 66.5469 45.4602C67.7874 44.1723 69.2315 43.1922 70.8793 42.5199C72.527 41.8475 74.312 41.5114 76.2344 41.5114C77.8821 41.5114 79.4162 41.7528 80.8366 42.2358C82.2571 42.7093 83.5166 43.3816 84.6151 44.2528C85.723 45.1241 86.6274 46.161 87.3281 47.3636C88.0289 48.5568 88.4787 49.8731 88.6776 51.3125H82.4276ZM93.5675 71V41.9091H105.215C107.355 41.9091 109.14 42.2263 110.57 42.8608C112 43.4953 113.075 44.3759 113.795 45.5028C114.514 46.6203 114.874 47.9081 114.874 49.3665C114.874 50.5028 114.647 51.5019 114.192 52.3636C113.738 53.2159 113.113 53.9167 112.317 54.4659C111.531 55.0057 110.632 55.3892 109.619 55.6165V55.9006C110.727 55.9479 111.763 56.2604 112.729 56.8381C113.705 57.4157 114.496 58.2254 115.102 59.267C115.708 60.2992 116.011 61.5303 116.011 62.9602C116.011 64.5038 115.627 65.8816 114.86 67.0938C114.103 68.2964 112.98 69.2481 111.494 69.9489C110.007 70.6496 108.174 71 105.996 71H93.5675ZM99.718 65.9716H104.732C106.446 65.9716 107.696 65.6449 108.482 64.9915C109.268 64.3286 109.661 63.4479 109.661 62.3494C109.661 61.5445 109.467 60.8343 109.079 60.2188C108.691 59.6032 108.137 59.1203 107.417 58.7699C106.707 58.4195 105.859 58.2443 104.874 58.2443H99.718V65.9716ZM99.718 54.0824H104.278C105.121 54.0824 105.869 53.9356 106.522 53.642C107.185 53.339 107.706 52.9129 108.085 52.3636C108.473 51.8144 108.667 51.1562 108.667 50.3892C108.667 49.3381 108.293 48.4905 107.545 47.8466C106.806 47.2027 105.755 46.8807 104.391 46.8807H99.718V54.0824Z" fill="#A100FF"/>
<path d="M11.2443 100.159C10.3958 100.159 9.64015 100.013 8.97727 99.7216C8.31818 99.4261 7.79735 99.0208 7.41477 98.5057C7.03598 97.9867 6.84091 97.3883 6.82955 96.7102H9.30682C9.32197 96.9943 9.41477 97.2443 9.58523 97.4602C9.75947 97.6723 9.99053 97.8371 10.2784 97.9545C10.5663 98.072 10.8902 98.1307 11.25 98.1307C11.625 98.1307 11.9564 98.0644 12.2443 97.9318C12.5322 97.7992 12.7576 97.6155 12.9205 97.3807C13.0833 97.1458 13.1648 96.875 13.1648 96.5682C13.1648 96.2576 13.0777 95.983 12.9034 95.7443C12.733 95.5019 12.4867 95.3125 12.1648 95.1761C11.8466 95.0398 11.4678 94.9716 11.0284 94.9716H9.94318V93.1648H11.0284C11.3996 93.1648 11.7273 93.1004 12.0114 92.9716C12.2992 92.8428 12.5227 92.6648 12.6818 92.4375C12.8409 92.2064 12.9205 91.9375 12.9205 91.6307C12.9205 91.339 12.8504 91.0833 12.7102 90.8636C12.5739 90.6402 12.3807 90.4659 12.1307 90.3409C11.8845 90.2159 11.5966 90.1534 11.267 90.1534C10.9337 90.1534 10.6288 90.214 10.3523 90.3352C10.0758 90.4527 9.85417 90.6212 9.6875 90.8409C9.52083 91.0606 9.43182 91.3182 9.42045 91.6136H7.0625C7.07386 90.9432 7.26515 90.3523 7.63636 89.8409C8.00758 89.3295 8.50758 88.9299 9.13636 88.642C9.76894 88.3504 10.483 88.2045 11.2784 88.2045C12.0814 88.2045 12.7841 88.3504 13.3864 88.642C13.9886 88.9337 14.4564 89.3277 14.7898 89.8239C15.1269 90.3163 15.2936 90.8693 15.2898 91.483C15.2936 92.1345 15.0909 92.678 14.6818 93.1136C14.2765 93.5492 13.7481 93.8258 13.0966 93.9432V94.0341C13.9527 94.1439 14.6042 94.4413 15.0511 94.9261C15.5019 95.4072 15.7254 96.0095 15.7216 96.733C15.7254 97.3958 15.5341 97.9848 15.1477 98.5C14.7652 99.0152 14.2367 99.4205 13.5625 99.7159C12.8883 100.011 12.1155 100.159 11.2443 100.159ZM22.0526 100.256C21.0753 100.252 20.2344 100.011 19.5298 99.5341C18.8291 99.0568 18.2893 98.3655 17.9105 97.4602C17.5355 96.5549 17.3499 95.4659 17.3537 94.1932C17.3537 92.9242 17.5412 91.8428 17.9162 90.9489C18.295 90.0549 18.8348 89.375 19.5355 88.9091C20.2401 88.4394 21.0791 88.2045 22.0526 88.2045C23.026 88.2045 23.8632 88.4394 24.5639 88.9091C25.2685 89.3788 25.8101 90.0606 26.1889 90.9545C26.5677 91.8447 26.7552 92.9242 26.7514 94.1932C26.7514 95.4697 26.562 96.5606 26.1832 97.4659C25.8082 98.3712 25.2704 99.0625 24.5696 99.5398C23.8688 100.017 23.0298 100.256 22.0526 100.256ZM22.0526 98.2159C22.7192 98.2159 23.2514 97.8807 23.6491 97.2102C24.0469 96.5398 24.2438 95.5341 24.2401 94.1932C24.2401 93.3106 24.1491 92.5758 23.9673 91.9886C23.7893 91.4015 23.5355 90.9602 23.206 90.6648C22.8802 90.3693 22.4957 90.2216 22.0526 90.2216C21.3897 90.2216 20.8594 90.553 20.4616 91.2159C20.0639 91.8788 19.8632 92.8712 19.8594 94.1932C19.8594 95.0871 19.9484 95.8333 20.1264 96.4318C20.3082 97.0265 20.5639 97.4735 20.8935 97.7727C21.223 98.0682 21.6094 98.2159 22.0526 98.2159ZM32.277 100V88.3636H34.7372V93.1648H39.7315V88.3636H42.1861V100H39.7315V95.1932H34.7372V100H32.277ZM46.6577 100.165C46.1009 100.165 45.6046 100.068 45.169 99.875C44.7334 99.678 44.3887 99.3883 44.1349 99.0057C43.8849 98.6193 43.7599 98.1383 43.7599 97.5625C43.7599 97.0777 43.849 96.6705 44.027 96.3409C44.205 96.0114 44.4474 95.7462 44.7543 95.5455C45.0611 95.3447 45.4096 95.1932 45.7997 95.0909C46.1937 94.9886 46.6065 94.9167 47.0384 94.875C47.5459 94.822 47.955 94.7727 48.2656 94.7273C48.5762 94.678 48.8016 94.6061 48.9418 94.5114C49.0819 94.4167 49.152 94.2765 49.152 94.0909V94.0568C49.152 93.697 49.0384 93.4186 48.8111 93.2216C48.5876 93.0246 48.2694 92.9261 47.8565 92.9261C47.4209 92.9261 47.0743 93.0227 46.8168 93.2159C46.5592 93.4053 46.3887 93.6439 46.3054 93.9318L44.0668 93.75C44.1804 93.2197 44.4039 92.7614 44.7372 92.375C45.0705 91.9848 45.5005 91.6856 46.027 91.4773C46.5573 91.2652 47.1709 91.1591 47.8679 91.1591C48.3527 91.1591 48.8168 91.2159 49.2599 91.3295C49.7069 91.4432 50.1027 91.6193 50.4474 91.858C50.7959 92.0966 51.0705 92.4034 51.2713 92.7784C51.4721 93.1496 51.5724 93.5947 51.5724 94.1136V100H49.277V98.7898H49.2088C49.0687 99.0625 48.8812 99.303 48.6463 99.5114C48.4115 99.7159 48.1293 99.8769 47.7997 99.9943C47.4702 100.108 47.0895 100.165 46.6577 100.165ZM47.3509 98.4943C47.7069 98.4943 48.0213 98.4242 48.294 98.2841C48.5668 98.1402 48.7808 97.947 48.9361 97.7045C49.0914 97.4621 49.169 97.1875 49.169 96.8807V95.9545C49.0933 96.0038 48.9891 96.0492 48.8565 96.0909C48.7277 96.1288 48.5819 96.1648 48.419 96.1989C48.2562 96.2292 48.0933 96.2576 47.9304 96.2841C47.7675 96.3068 47.6198 96.3277 47.4872 96.3466C47.2031 96.3883 46.955 96.4545 46.7429 96.5455C46.5308 96.6364 46.366 96.7595 46.2486 96.9148C46.1312 97.0663 46.0724 97.2557 46.0724 97.483C46.0724 97.8125 46.1918 98.0644 46.4304 98.2386C46.6728 98.4091 46.9796 98.4943 47.3509 98.4943ZM53.4503 100V91.2727H55.7969V92.7955H55.8878C56.0469 92.2538 56.3139 91.8447 56.6889 91.5682C57.0639 91.2879 57.4957 91.1477 57.9844 91.1477C58.1056 91.1477 58.2363 91.1553 58.3764 91.1705C58.5166 91.1856 58.6397 91.2064 58.7457 91.233V93.3807C58.6321 93.3466 58.4749 93.3163 58.2741 93.2898C58.0734 93.2633 57.8897 93.25 57.723 93.25C57.367 93.25 57.0488 93.3277 56.7685 93.483C56.492 93.6345 56.2723 93.8466 56.1094 94.1193C55.9503 94.392 55.8707 94.7064 55.8707 95.0625V100H53.4503ZM59.9972 100V91.2727H62.4176V100H59.9972ZM61.2131 90.1477C60.8532 90.1477 60.5445 90.0284 60.2869 89.7898C60.0331 89.5473 59.9062 89.2576 59.9062 88.9205C59.9062 88.5871 60.0331 88.3011 60.2869 88.0625C60.5445 87.8201 60.8532 87.6989 61.2131 87.6989C61.5729 87.6989 61.8797 87.8201 62.1335 88.0625C62.3911 88.3011 62.5199 88.5871 62.5199 88.9205C62.5199 89.2576 62.3911 89.5473 62.1335 89.7898C61.8797 90.0284 61.5729 90.1477 61.2131 90.1477Z" fill="black"/>
</svg>
