<svg width="140" height="128" viewBox="0 0 140 128" fill="none" xmlns="http://www.w3.org/2000/svg">
<rect width="140" height="128" rx="10" fill="#A100FF"/>
<path d="M6.32955 12.3636H9.08523L11.7386 17.375H11.8523L14.5057 12.3636H17.2614L13.017 19.8864V24H10.5739V19.8864L6.32955 12.3636ZM20.6747 24.1705C19.7921 24.1705 19.0289 23.983 18.3849 23.608C17.7448 23.2292 17.2505 22.7027 16.902 22.0284C16.5535 21.3504 16.3793 20.5644 16.3793 19.6705C16.3793 18.7689 16.5535 17.9811 16.902 17.3068C17.2505 16.6288 17.7448 16.1023 18.3849 15.7273C19.0289 15.3485 19.7921 15.1591 20.6747 15.1591C21.5573 15.1591 22.3187 15.3485 22.9588 15.7273C23.6027 16.1023 24.099 16.6288 24.4474 17.3068C24.7959 17.9811 24.9702 18.7689 24.9702 19.6705C24.9702 20.5644 24.7959 21.3504 24.4474 22.0284C24.099 22.7027 23.6027 23.2292 22.9588 23.608C22.3187 23.983 21.5573 24.1705 20.6747 24.1705ZM20.6861 22.2955C21.0876 22.2955 21.4228 22.1818 21.6918 21.9545C21.9607 21.7235 22.1634 21.4091 22.2997 21.0114C22.4399 20.6136 22.5099 20.161 22.5099 19.6534C22.5099 19.1458 22.4399 18.6932 22.2997 18.2955C22.1634 17.8977 21.9607 17.5833 21.6918 17.3523C21.4228 17.1212 21.0876 17.0057 20.6861 17.0057C20.2808 17.0057 19.9399 17.1212 19.6634 17.3523C19.3906 17.5833 19.1842 17.8977 19.044 18.2955C18.9077 18.6932 18.8395 19.1458 18.8395 19.6534C18.8395 20.161 18.9077 20.6136 19.044 21.0114C19.1842 21.4091 19.3906 21.7235 19.6634 21.9545C19.9399 22.1818 20.2808 22.2955 20.6861 22.2955ZM32.1406 20.2841V15.2727H34.5611V24H32.2372V22.4148H32.1463C31.9493 22.9261 31.6217 23.3371 31.1634 23.6477C30.7088 23.9583 30.1539 24.1136 29.4986 24.1136C28.9152 24.1136 28.402 23.9811 27.9588 23.7159C27.5156 23.4508 27.169 23.0739 26.919 22.5852C26.6728 22.0966 26.5478 21.5114 26.544 20.8295V15.2727H28.9645V20.3977C28.9683 20.9129 29.1065 21.3201 29.3793 21.6193C29.652 21.9186 30.0175 22.0682 30.4759 22.0682C30.7675 22.0682 31.0402 22.0019 31.294 21.8693C31.5478 21.733 31.7524 21.5322 31.9077 21.267C32.0668 21.0019 32.1444 20.6742 32.1406 20.2841ZM41.1392 15.2727V17.0909H35.8835V15.2727H41.1392ZM37.0767 13.1818H39.4972V21.3182C39.4972 21.5417 39.5313 21.7159 39.5994 21.8409C39.6676 21.9621 39.7623 22.0473 39.8835 22.0966C40.0085 22.1458 40.1525 22.1705 40.3153 22.1705C40.429 22.1705 40.5426 22.161 40.6562 22.142C40.7699 22.1193 40.857 22.1023 40.9176 22.0909L41.2983 23.892C41.1771 23.9299 41.0066 23.9735 40.7869 24.0227C40.5672 24.0758 40.3002 24.108 39.9858 24.1193C39.4025 24.142 38.8911 24.0644 38.4517 23.8864C38.0161 23.7083 37.6771 23.4318 37.4347 23.0568C37.1922 22.6818 37.0729 22.2083 37.0767 21.6364V13.1818ZM48.3125 20.2841V15.2727H50.733V24H48.4091V22.4148H48.3182C48.1212 22.9261 47.7936 23.3371 47.3352 23.6477C46.8807 23.9583 46.3258 24.1136 45.6705 24.1136C45.0871 24.1136 44.5739 23.9811 44.1307 23.7159C43.6875 23.4508 43.3409 23.0739 43.0909 22.5852C42.8447 22.0966 42.7197 21.5114 42.7159 20.8295V15.2727H45.1364V20.3977C45.1402 20.9129 45.2784 21.3201 45.5511 21.6193C45.8239 21.9186 46.1894 22.0682 46.6477 22.0682C46.9394 22.0682 47.2121 22.0019 47.4659 21.8693C47.7197 21.733 47.9242 21.5322 48.0795 21.267C48.2386 21.0019 48.3163 20.6742 48.3125 20.2841ZM52.7145 24V12.3636H55.1349V16.7386H55.2088C55.3149 16.5038 55.4683 16.2652 55.669 16.0227C55.8736 15.7765 56.1387 15.572 56.4645 15.4091C56.794 15.2424 57.2031 15.1591 57.6918 15.1591C58.3281 15.1591 58.9152 15.3258 59.4531 15.6591C59.991 15.9886 60.4209 16.4867 60.7429 17.1534C61.0649 17.8163 61.2259 18.6477 61.2259 19.6477C61.2259 20.6212 61.0687 21.4432 60.7543 22.1136C60.4437 22.7803 60.0194 23.286 59.4815 23.6307C58.9474 23.9716 58.349 24.142 57.6861 24.142C57.2164 24.142 56.8168 24.0644 56.4872 23.9091C56.1615 23.7538 55.8944 23.5587 55.6861 23.3239C55.4777 23.0852 55.3187 22.8447 55.2088 22.6023H55.1009V24H52.7145ZM55.0838 19.6364C55.0838 20.1553 55.1558 20.608 55.2997 20.9943C55.4437 21.3807 55.652 21.6818 55.9247 21.8977C56.1974 22.1098 56.5289 22.2159 56.919 22.2159C57.313 22.2159 57.6463 22.108 57.919 21.892C58.1918 21.6723 58.3982 21.3693 58.5384 20.983C58.6823 20.5928 58.7543 20.1439 58.7543 19.6364C58.7543 19.1326 58.6842 18.6894 58.544 18.3068C58.4039 17.9242 58.1974 17.625 57.9247 17.4091C57.652 17.1932 57.3168 17.0852 56.919 17.0852C56.5251 17.0852 56.1918 17.1894 55.919 17.3977C55.6501 17.6061 55.4437 17.9015 55.2997 18.2841C55.1558 18.6667 55.0838 19.1174 55.0838 19.6364ZM66.8182 24.1705C65.9205 24.1705 65.1477 23.9886 64.5 23.625C63.8561 23.2576 63.3598 22.7386 63.0114 22.0682C62.6629 21.3939 62.4886 20.5966 62.4886 19.6761C62.4886 18.7784 62.6629 17.9905 63.0114 17.3125C63.3598 16.6345 63.8504 16.1061 64.483 15.7273C65.1193 15.3485 65.8655 15.1591 66.7216 15.1591C67.2973 15.1591 67.8333 15.2519 68.3295 15.4375C68.8295 15.6193 69.2652 15.8939 69.6364 16.2614C70.0114 16.6288 70.303 17.0909 70.5114 17.6477C70.7197 18.2008 70.8239 18.8485 70.8239 19.5909V20.2557H63.4545V18.7557H68.5455C68.5455 18.4072 68.4697 18.0985 68.3182 17.8295C68.1667 17.5606 67.9564 17.3504 67.6875 17.1989C67.4223 17.0436 67.1136 16.9659 66.7614 16.9659C66.3939 16.9659 66.0682 17.0511 65.7841 17.2216C65.5038 17.3883 65.2841 17.6136 65.125 17.8977C64.9659 18.178 64.8845 18.4905 64.8807 18.8352V20.2614C64.8807 20.6932 64.9602 21.0663 65.1193 21.3807C65.2822 21.6951 65.5114 21.9375 65.8068 22.108C66.1023 22.2784 66.4527 22.3636 66.858 22.3636C67.1269 22.3636 67.3731 22.3258 67.5966 22.25C67.8201 22.1742 68.0114 22.0606 68.1705 21.9091C68.3295 21.7576 68.4508 21.572 68.5341 21.3523L70.7727 21.5C70.6591 22.0379 70.4261 22.5076 70.0739 22.9091C69.7254 23.3068 69.2746 23.6174 68.7216 23.8409C68.1723 24.0606 67.5379 24.1705 66.8182 24.1705Z" fill="white"/>
<path d="M9.50852 71L21.5682 47.1364V46.9375H7.51989V41.9091H27.9318V47.0085L15.858 71H9.50852ZM60.8651 51.3125C60.6662 50.6212 60.3868 50.0104 60.027 49.4801C59.6671 48.9403 59.2268 48.4858 58.706 48.1165C58.1946 47.7377 57.6075 47.4489 56.9446 47.25C56.2912 47.0511 55.5668 46.9517 54.7713 46.9517C53.2846 46.9517 51.9777 47.321 50.8509 48.0597C49.7334 48.7983 48.8622 49.8731 48.2372 51.2841C47.6122 52.6856 47.2997 54.3996 47.2997 56.4261C47.2997 58.4527 47.6075 60.1761 48.223 61.5966C48.8385 63.017 49.7098 64.1013 50.8366 64.8494C51.9635 65.5881 53.294 65.9574 54.8281 65.9574C56.2202 65.9574 57.4086 65.7112 58.3935 65.2188C59.3878 64.7169 60.1454 64.0114 60.6662 63.1023C61.1965 62.1932 61.4616 61.1184 61.4616 59.8778L62.7116 60.0625H55.2116V55.4318H67.3849V59.0966C67.3849 61.6534 66.8452 63.8504 65.7656 65.6875C64.6861 67.5152 63.1993 68.9261 61.3054 69.9205C59.4115 70.9053 57.2429 71.3977 54.7997 71.3977C52.0724 71.3977 49.6766 70.7964 47.6122 69.5938C45.5478 68.3816 43.938 66.6629 42.7827 64.4375C41.6368 62.2027 41.0639 59.5511 41.0639 56.483C41.0639 54.125 41.4048 52.0227 42.0866 50.1761C42.7779 48.3201 43.7438 46.7481 44.9844 45.4602C46.2249 44.1723 47.669 43.1922 49.3168 42.5199C50.9645 41.8475 52.7495 41.5114 54.6719 41.5114C56.3196 41.5114 57.8537 41.7528 59.2741 42.2358C60.6946 42.7093 61.9541 43.3816 63.0526 44.2528C64.1605 45.1241 65.0649 46.161 65.7656 47.3636C66.4664 48.5568 66.9162 49.8731 67.1151 51.3125H60.8651ZM72.005 71V41.9091H83.6527C85.7929 41.9091 87.5779 42.2263 89.0078 42.8608C90.4377 43.4953 91.5125 44.3759 92.2322 45.5028C92.9519 46.6203 93.3118 47.9081 93.3118 49.3665C93.3118 50.5028 93.0845 51.5019 92.63 52.3636C92.1754 53.2159 91.5504 53.9167 90.755 54.4659C89.969 55.0057 89.0694 55.3892 88.0561 55.6165V55.9006C89.1641 55.9479 90.201 56.2604 91.1669 56.8381C92.1423 57.4157 92.933 58.2254 93.5391 59.267C94.1451 60.2992 94.4482 61.5303 94.4482 62.9602C94.4482 64.5038 94.0646 65.8816 93.2976 67.0938C92.54 68.2964 91.4179 69.2481 89.9311 69.9489C88.4444 70.6496 86.612 71 84.4339 71H72.005ZM78.1555 65.9716H83.1697C84.8838 65.9716 86.1338 65.6449 86.9197 64.9915C87.7057 64.3286 88.0987 63.4479 88.0987 62.3494C88.0987 61.5445 87.9046 60.8343 87.5163 60.2188C87.1281 59.6032 86.5741 59.1203 85.8544 58.7699C85.1442 58.4195 84.2966 58.2443 83.3118 58.2443H78.1555V65.9716ZM78.1555 54.0824H82.7152C83.558 54.0824 84.3061 53.9356 84.9595 53.642C85.6224 53.339 86.1432 52.9129 86.522 52.3636C86.9103 51.8144 87.1044 51.1562 87.1044 50.3892C87.1044 49.3381 86.7304 48.4905 85.9822 47.8466C85.2436 47.2027 84.1925 46.8807 82.8288 46.8807H78.1555V54.0824Z" fill="#89E4FF"/>
<path d="M12.0057 88.3636V100H9.54545V90.6989H9.47727L6.8125 92.3693V90.1875L9.69318 88.3636H12.0057ZM14.5952 97.9545V96.017L19.4531 88.3636H21.1236V91.0455H20.1349L17.0724 95.892V95.983H23.9759V97.9545H14.5952ZM20.1804 100V97.3636L20.2259 96.5057V88.3636H22.5327V100H20.1804ZM29.3864 100V88.3636H31.8466V93.1648H36.8409V88.3636H39.2955V100H36.8409V95.1932H31.8466V100H29.3864ZM43.767 100.165C43.2102 100.165 42.714 100.068 42.2784 99.875C41.8428 99.678 41.4981 99.3883 41.2443 99.0057C40.9943 98.6193 40.8693 98.1383 40.8693 97.5625C40.8693 97.0777 40.9583 96.6705 41.1364 96.3409C41.3144 96.0114 41.5568 95.7462 41.8636 95.5455C42.1705 95.3447 42.5189 95.1932 42.9091 95.0909C43.303 94.9886 43.7159 94.9167 44.1477 94.875C44.6553 94.822 45.0644 94.7727 45.375 94.7273C45.6856 94.678 45.911 94.6061 46.0511 94.5114C46.1913 94.4167 46.2614 94.2765 46.2614 94.0909V94.0568C46.2614 93.697 46.1477 93.4186 45.9205 93.2216C45.697 93.0246 45.3788 92.9261 44.9659 92.9261C44.5303 92.9261 44.1837 93.0227 43.9261 93.2159C43.6686 93.4053 43.4981 93.6439 43.4148 93.9318L41.1761 93.75C41.2898 93.2197 41.5133 92.7614 41.8466 92.375C42.1799 91.9848 42.6098 91.6856 43.1364 91.4773C43.6667 91.2652 44.2803 91.1591 44.9773 91.1591C45.4621 91.1591 45.9261 91.2159 46.3693 91.3295C46.8163 91.4432 47.2121 91.6193 47.5568 91.858C47.9053 92.0966 48.1799 92.4034 48.3807 92.7784C48.5814 93.1496 48.6818 93.5947 48.6818 94.1136V100H46.3864V98.7898H46.3182C46.178 99.0625 45.9905 99.303 45.7557 99.5114C45.5208 99.7159 45.2386 99.8769 44.9091 99.9943C44.5795 100.108 44.1989 100.165 43.767 100.165ZM44.4602 98.4943C44.8163 98.4943 45.1307 98.4242 45.4034 98.2841C45.6761 98.1402 45.8902 97.947 46.0455 97.7045C46.2008 97.4621 46.2784 97.1875 46.2784 96.8807V95.9545C46.2027 96.0038 46.0985 96.0492 45.9659 96.0909C45.8371 96.1288 45.6913 96.1648 45.5284 96.1989C45.3655 96.2292 45.2027 96.2576 45.0398 96.2841C44.8769 96.3068 44.7292 96.3277 44.5966 96.3466C44.3125 96.3883 44.0644 96.4545 43.8523 96.5455C43.6402 96.6364 43.4754 96.7595 43.358 96.9148C43.2405 97.0663 43.1818 97.2557 43.1818 97.483C43.1818 97.8125 43.3011 98.0644 43.5398 98.2386C43.7822 98.4091 44.089 98.4943 44.4602 98.4943ZM50.5597 100V91.2727H52.9062V92.7955H52.9972C53.1563 92.2538 53.4233 91.8447 53.7983 91.5682C54.1733 91.2879 54.6051 91.1477 55.0938 91.1477C55.215 91.1477 55.3456 91.1553 55.4858 91.1705C55.6259 91.1856 55.7491 91.2064 55.8551 91.233V93.3807C55.7415 93.3466 55.5843 93.3163 55.3835 93.2898C55.1828 93.2633 54.9991 93.25 54.8324 93.25C54.4763 93.25 54.1581 93.3277 53.8778 93.483C53.6013 93.6345 53.3816 93.8466 53.2188 94.1193C53.0597 94.392 52.9801 94.7064 52.9801 95.0625V100H50.5597ZM57.1065 100V91.2727H59.527V100H57.1065ZM58.3224 90.1477C57.9626 90.1477 57.6539 90.0284 57.3963 89.7898C57.1425 89.5473 57.0156 89.2576 57.0156 88.9205C57.0156 88.5871 57.1425 88.3011 57.3963 88.0625C57.6539 87.8201 57.9626 87.6989 58.3224 87.6989C58.6823 87.6989 58.9891 87.8201 59.2429 88.0625C59.5005 88.3011 59.6293 88.5871 59.6293 88.9205C59.6293 89.2576 59.5005 89.5473 59.2429 89.7898C58.9891 90.0284 58.6823 90.1477 58.3224 90.1477Z" fill="black"/>
</svg>
