<svg width="140" height="128" viewBox="0 0 140 128" fill="none" xmlns="http://www.w3.org/2000/svg">
<rect width="140" height="128" rx="10" fill="#D48AFF"/>
<path d="M6.56818 14.392V12.3636H16.125V14.392H12.5625V24H10.1307V14.392H6.56818ZM20.3651 24.1705C19.4673 24.1705 18.6946 23.9886 18.0469 23.625C17.4029 23.2576 16.9067 22.7386 16.5582 22.0682C16.2098 21.3939 16.0355 20.5966 16.0355 19.6761C16.0355 18.7784 16.2098 17.9905 16.5582 17.3125C16.9067 16.6345 17.3973 16.1061 18.0298 15.7273C18.6662 15.3485 19.4124 15.1591 20.2685 15.1591C20.8442 15.1591 21.3802 15.2519 21.8764 15.4375C22.3764 15.6193 22.812 15.8939 23.1832 16.2614C23.5582 16.6288 23.8499 17.0909 24.0582 17.6477C24.2666 18.2008 24.3707 18.8485 24.3707 19.5909V20.2557H17.0014V18.7557H22.0923C22.0923 18.4072 22.0166 18.0985 21.8651 17.8295C21.7135 17.5606 21.5033 17.3504 21.2344 17.1989C20.9692 17.0436 20.6605 16.9659 20.3082 16.9659C19.9408 16.9659 19.6151 17.0511 19.331 17.2216C19.0507 17.3883 18.831 17.6136 18.6719 17.8977C18.5128 18.178 18.4313 18.4905 18.4276 18.8352V20.2614C18.4276 20.6932 18.5071 21.0663 18.6662 21.3807C18.8291 21.6951 19.0582 21.9375 19.3537 22.108C19.6491 22.2784 19.9995 22.3636 20.4048 22.3636C20.6738 22.3636 20.92 22.3258 21.1435 22.25C21.367 22.1742 21.5582 22.0606 21.7173 21.9091C21.8764 21.7576 21.9976 21.572 22.081 21.3523L24.3196 21.5C24.206 22.0379 23.973 22.5076 23.6207 22.9091C23.2723 23.3068 22.8215 23.6174 22.2685 23.8409C21.7192 24.0606 21.0848 24.1705 20.3651 24.1705ZM28.3707 12.3636V24H25.9503V12.3636H28.3707ZM30.3097 27.2727V15.2727H32.696V16.7386H32.804C32.91 16.5038 33.0634 16.2652 33.2642 16.0227C33.4688 15.7765 33.7339 15.572 34.0597 15.4091C34.3892 15.2424 34.7983 15.1591 35.2869 15.1591C35.9233 15.1591 36.5104 15.3258 37.0483 15.6591C37.5862 15.9886 38.0161 16.4867 38.3381 17.1534C38.66 17.8163 38.821 18.6477 38.821 19.6477C38.821 20.6212 38.6638 21.4432 38.3494 22.1136C38.0388 22.7803 37.6146 23.286 37.0767 23.6307C36.5426 23.9716 35.9441 24.142 35.2812 24.142C34.8116 24.142 34.4119 24.0644 34.0824 23.9091C33.7566 23.7538 33.4896 23.5587 33.2812 23.3239C33.0729 23.0852 32.9138 22.8447 32.804 22.6023H32.7301V27.2727H30.3097ZM32.679 19.6364C32.679 20.1553 32.7509 20.608 32.8949 20.9943C33.0388 21.3807 33.2472 21.6818 33.5199 21.8977C33.7926 22.1098 34.1241 22.2159 34.5142 22.2159C34.9081 22.2159 35.2415 22.108 35.5142 21.892C35.7869 21.6723 35.9934 21.3693 36.1335 20.983C36.2775 20.5928 36.3494 20.1439 36.3494 19.6364C36.3494 19.1326 36.2794 18.6894 36.1392 18.3068C35.9991 17.9242 35.7926 17.625 35.5199 17.4091C35.2472 17.1932 34.9119 17.0852 34.5142 17.0852C34.1203 17.0852 33.7869 17.1894 33.5142 17.3977C33.2453 17.6061 33.0388 17.9015 32.8949 18.2841C32.7509 18.6667 32.679 19.1174 32.679 19.6364ZM44.3778 24.1705C43.4953 24.1705 42.732 23.983 42.0881 23.608C41.4479 23.2292 40.9536 22.7027 40.6051 22.0284C40.2566 21.3504 40.0824 20.5644 40.0824 19.6705C40.0824 18.7689 40.2566 17.9811 40.6051 17.3068C40.9536 16.6288 41.4479 16.1023 42.0881 15.7273C42.732 15.3485 43.4953 15.1591 44.3778 15.1591C45.2604 15.1591 46.0218 15.3485 46.6619 15.7273C47.3059 16.1023 47.8021 16.6288 48.1506 17.3068C48.4991 17.9811 48.6733 18.7689 48.6733 19.6705C48.6733 20.5644 48.4991 21.3504 48.1506 22.0284C47.8021 22.7027 47.3059 23.2292 46.6619 23.608C46.0218 23.983 45.2604 24.1705 44.3778 24.1705ZM44.3892 22.2955C44.7907 22.2955 45.1259 22.1818 45.3949 21.9545C45.6638 21.7235 45.8665 21.4091 46.0028 21.0114C46.143 20.6136 46.2131 20.161 46.2131 19.6534C46.2131 19.1458 46.143 18.6932 46.0028 18.2955C45.8665 17.8977 45.6638 17.5833 45.3949 17.3523C45.1259 17.1212 44.7907 17.0057 44.3892 17.0057C43.9839 17.0057 43.643 17.1212 43.3665 17.3523C43.0938 17.5833 42.8873 17.8977 42.7472 18.2955C42.6108 18.6932 42.5426 19.1458 42.5426 19.6534C42.5426 20.161 42.6108 20.6136 42.7472 21.0114C42.8873 21.4091 43.0938 21.7235 43.3665 21.9545C43.643 22.1818 43.9839 22.2955 44.3892 22.2955ZM52.6676 18.9545V24H50.2472V15.2727H52.554V16.8125H52.6562C52.8494 16.3049 53.1733 15.9034 53.6278 15.608C54.0824 15.3087 54.6335 15.1591 55.2812 15.1591C55.8873 15.1591 56.4157 15.2917 56.8665 15.5568C57.3172 15.822 57.6676 16.2008 57.9176 16.6932C58.1676 17.1818 58.2926 17.7652 58.2926 18.4432V24H55.8722V18.875C55.8759 18.3409 55.7396 17.9242 55.4631 17.625C55.1866 17.322 54.8059 17.1705 54.321 17.1705C53.9953 17.1705 53.7074 17.2405 53.4574 17.3807C53.2112 17.5208 53.018 17.7254 52.8778 17.9943C52.7415 18.2595 52.6714 18.5795 52.6676 18.9545Z" fill="white"/>
<path d="M16.8182 58.3182C15.6212 58.3106 14.4659 58.1098 13.3523 57.7159C12.2462 57.322 11.2538 56.6818 10.375 55.7955C9.49621 54.9091 8.79924 53.7348 8.28409 52.2727C7.77652 50.8106 7.52273 49.0152 7.52273 46.8864C7.5303 44.9318 7.75379 43.1856 8.19318 41.6477C8.64015 40.1023 9.27652 38.7917 10.1023 37.7159C10.9356 36.6402 11.9318 35.822 13.0909 35.2614C14.25 34.6932 15.5492 34.4091 16.9886 34.4091C18.5417 34.4091 19.9129 34.7121 21.1023 35.3182C22.2917 35.9167 23.2462 36.7311 23.9659 37.7614C24.6932 38.7917 25.1326 39.947 25.2841 41.2273H20.4318C20.2424 40.4167 19.8447 39.7803 19.2386 39.3182C18.6326 38.8561 17.8826 38.625 16.9886 38.625C15.4735 38.625 14.322 39.2841 13.5341 40.6023C12.7538 41.9205 12.3561 43.7121 12.3409 45.9773H12.5C12.8485 45.2879 13.3182 44.7008 13.9091 44.2159C14.5076 43.7235 15.1856 43.3485 15.9432 43.0909C16.7083 42.8258 17.5152 42.6932 18.3636 42.6932C19.7424 42.6932 20.9697 43.0189 22.0455 43.6705C23.1212 44.3144 23.9697 45.2008 24.5909 46.3295C25.2121 47.4583 25.5227 48.75 25.5227 50.2045C25.5227 51.7803 25.1553 53.1818 24.4205 54.4091C23.6932 55.6364 22.6742 56.5985 21.3636 57.2955C20.0606 57.9848 18.5455 58.3258 16.8182 58.3182ZM16.7955 54.4545C17.553 54.4545 18.2311 54.2727 18.8295 53.9091C19.428 53.5455 19.8977 53.053 20.2386 52.4318C20.5795 51.8106 20.75 51.1136 20.75 50.3409C20.75 49.5682 20.5795 48.875 20.2386 48.2614C19.9053 47.6477 19.4432 47.1591 18.8523 46.7955C18.2614 46.4318 17.5871 46.25 16.8295 46.25C16.2614 46.25 15.7348 46.3561 15.25 46.5682C14.7727 46.7803 14.3523 47.0758 13.9886 47.4545C13.6326 47.8333 13.3523 48.2727 13.1477 48.7727C12.9432 49.2652 12.8409 49.7917 12.8409 50.3523C12.8409 51.1023 13.0114 51.7879 13.3523 52.4091C13.7008 53.0303 14.1705 53.5265 14.7614 53.8977C15.3598 54.2689 16.0379 54.4545 16.7955 54.4545ZM38.1364 58.5114C36.1818 58.5038 34.5 58.0227 33.0909 57.0682C31.6894 56.1136 30.6098 54.7311 29.8523 52.9205C29.1023 51.1098 28.7311 48.9318 28.7386 46.3864C28.7386 43.8485 29.1136 41.6856 29.8636 39.8977C30.6212 38.1098 31.7008 36.75 33.1023 35.8182C34.5114 34.8788 36.1894 34.4091 38.1364 34.4091C40.0833 34.4091 41.7576 34.8788 43.1591 35.8182C44.5682 36.7576 45.6515 38.1212 46.4091 39.9091C47.1667 41.6894 47.5417 43.8485 47.5341 46.3864C47.5341 48.9394 47.1553 51.1212 46.3977 52.9318C45.6477 54.7424 44.572 56.125 43.1705 57.0795C41.7689 58.0341 40.0909 58.5114 38.1364 58.5114ZM38.1364 54.4318C39.4697 54.4318 40.5341 53.7614 41.3295 52.4205C42.125 51.0795 42.5189 49.0682 42.5114 46.3864C42.5114 44.6212 42.3295 43.1515 41.9659 41.9773C41.6098 40.803 41.1023 39.9205 40.4432 39.3295C39.7917 38.7386 39.0227 38.4432 38.1364 38.4432C36.8106 38.4432 35.75 39.1061 34.9545 40.4318C34.1591 41.7576 33.7576 43.7424 33.75 46.3864C33.75 48.1742 33.928 49.6667 34.2841 50.8636C34.6477 52.053 35.1591 52.947 35.8182 53.5455C36.4773 54.1364 37.25 54.4318 38.1364 54.4318ZM8.02273 66.7273H14.0909L20.5 82.3636H20.7727L27.1818 66.7273H33.25V90H28.4773V74.8523H28.2841L22.2614 89.8864H19.0114L12.9886 74.7955H12.7955V90H8.02273V66.7273ZM45.1676 90.3409C43.3722 90.3409 41.8267 89.9773 40.5312 89.25C39.2434 88.5152 38.2509 87.4773 37.554 86.1364C36.857 84.7879 36.5085 83.1932 36.5085 81.3523C36.5085 79.5568 36.857 77.9811 37.554 76.625C38.2509 75.2689 39.232 74.2121 40.4972 73.4545C41.7699 72.697 43.2623 72.3182 44.9744 72.3182C46.1259 72.3182 47.1979 72.5038 48.1903 72.875C49.1903 73.2386 50.0616 73.7879 50.804 74.5227C51.554 75.2576 52.1373 76.1818 52.554 77.2955C52.9706 78.4015 53.179 79.697 53.179 81.1818V82.5114H38.4403V79.5114H48.6222C48.6222 78.8144 48.4706 78.197 48.1676 77.6591C47.8646 77.1212 47.4441 76.7008 46.9062 76.3977C46.3759 76.0871 45.7585 75.9318 45.054 75.9318C44.3191 75.9318 43.6676 76.1023 43.0994 76.4432C42.5388 76.7765 42.0994 77.2273 41.7812 77.7955C41.4631 78.3561 41.3002 78.9811 41.2926 79.6705V82.5227C41.2926 83.3864 41.4517 84.1326 41.7699 84.7614C42.0956 85.3902 42.554 85.875 43.1449 86.2159C43.7358 86.5568 44.4366 86.7273 45.2472 86.7273C45.785 86.7273 46.2775 86.6515 46.7244 86.5C47.1714 86.3485 47.554 86.1212 47.8722 85.8182C48.1903 85.5152 48.4328 85.1439 48.5994 84.7045L53.0767 85C52.8494 86.0758 52.3835 87.0152 51.679 87.8182C50.982 88.6136 50.0805 89.2348 48.9744 89.6818C47.8759 90.1212 46.607 90.3409 45.1676 90.3409ZM61.179 79.9091V90H56.3381V72.5455H60.9517V75.625H61.1562C61.5426 74.6098 62.1903 73.8068 63.0994 73.2159C64.0085 72.6174 65.1108 72.3182 66.4062 72.3182C67.6184 72.3182 68.6752 72.5833 69.5767 73.1136C70.4782 73.6439 71.179 74.4015 71.679 75.3864C72.179 76.3636 72.429 77.5303 72.429 78.8864V90H67.5881V79.75C67.5956 78.6818 67.3229 77.8485 66.7699 77.25C66.2169 76.6439 65.4555 76.3409 64.4858 76.3409C63.8343 76.3409 63.2585 76.4811 62.7585 76.7614C62.2661 77.0417 61.8797 77.4508 61.5994 77.9886C61.3267 78.5189 61.1866 79.1591 61.179 79.9091ZM76.2443 90V72.5455H81.0852V90H76.2443ZM78.6761 70.2955C77.9564 70.2955 77.339 70.0568 76.8239 69.5795C76.3163 69.0947 76.0625 68.5152 76.0625 67.8409C76.0625 67.1742 76.3163 66.6023 76.8239 66.125C77.339 65.6402 77.9564 65.3977 78.6761 65.3977C79.3958 65.3977 80.0095 65.6402 80.517 66.125C81.0322 66.6023 81.2898 67.1742 81.2898 67.8409C81.2898 68.5152 81.0322 69.0947 80.517 69.5795C80.0095 70.0568 79.3958 70.2955 78.6761 70.2955ZM94.2472 72.5455V76.1818H83.7358V72.5455H94.2472ZM86.1222 68.3636H90.9631V84.6364C90.9631 85.0833 91.0313 85.4318 91.1676 85.6818C91.304 85.9242 91.4934 86.0947 91.7358 86.1932C91.9858 86.2917 92.2737 86.3409 92.5994 86.3409C92.8267 86.3409 93.054 86.322 93.2812 86.2841C93.5085 86.2386 93.6828 86.2045 93.804 86.1818L94.5653 89.7841C94.3229 89.8598 93.982 89.947 93.5426 90.0455C93.1032 90.1515 92.5691 90.2159 91.9403 90.2386C90.7737 90.2841 89.7509 90.1288 88.8722 89.7727C88.0009 89.4167 87.3229 88.8636 86.8381 88.1136C86.3532 87.3636 86.1146 86.4167 86.1222 85.2727V68.3636Z" fill="#C9F3FF"/>
<path d="M11.2443 112.159C10.3958 112.159 9.64015 112.013 8.97727 111.722C8.31818 111.426 7.79735 111.021 7.41477 110.506C7.03598 109.987 6.84091 109.388 6.82955 108.71H9.30682C9.32197 108.994 9.41477 109.244 9.58523 109.46C9.75947 109.672 9.99053 109.837 10.2784 109.955C10.5663 110.072 10.8902 110.131 11.25 110.131C11.625 110.131 11.9564 110.064 12.2443 109.932C12.5322 109.799 12.7576 109.616 12.9205 109.381C13.0833 109.146 13.1648 108.875 13.1648 108.568C13.1648 108.258 13.0777 107.983 12.9034 107.744C12.733 107.502 12.4867 107.312 12.1648 107.176C11.8466 107.04 11.4678 106.972 11.0284 106.972H9.94318V105.165H11.0284C11.3996 105.165 11.7273 105.1 12.0114 104.972C12.2992 104.843 12.5227 104.665 12.6818 104.438C12.8409 104.206 12.9205 103.938 12.9205 103.631C12.9205 103.339 12.8504 103.083 12.7102 102.864C12.5739 102.64 12.3807 102.466 12.1307 102.341C11.8845 102.216 11.5966 102.153 11.267 102.153C10.9337 102.153 10.6288 102.214 10.3523 102.335C10.0758 102.453 9.85417 102.621 9.6875 102.841C9.52083 103.061 9.43182 103.318 9.42045 103.614H7.0625C7.07386 102.943 7.26515 102.352 7.63636 101.841C8.00758 101.33 8.50758 100.93 9.13636 100.642C9.76894 100.35 10.483 100.205 11.2784 100.205C12.0814 100.205 12.7841 100.35 13.3864 100.642C13.9886 100.934 14.4564 101.328 14.7898 101.824C15.1269 102.316 15.2936 102.869 15.2898 103.483C15.2936 104.134 15.0909 104.678 14.6818 105.114C14.2765 105.549 13.7481 105.826 13.0966 105.943V106.034C13.9527 106.144 14.6042 106.441 15.0511 106.926C15.5019 107.407 15.7254 108.009 15.7216 108.733C15.7254 109.396 15.5341 109.985 15.1477 110.5C14.7652 111.015 14.2367 111.42 13.5625 111.716C12.8883 112.011 12.1155 112.159 11.2443 112.159ZM22.0526 112.256C21.0753 112.252 20.2344 112.011 19.5298 111.534C18.8291 111.057 18.2893 110.366 17.9105 109.46C17.5355 108.555 17.3499 107.466 17.3537 106.193C17.3537 104.924 17.5412 103.843 17.9162 102.949C18.295 102.055 18.8348 101.375 19.5355 100.909C20.2401 100.439 21.0791 100.205 22.0526 100.205C23.026 100.205 23.8632 100.439 24.5639 100.909C25.2685 101.379 25.8101 102.061 26.1889 102.955C26.5677 103.845 26.7552 104.924 26.7514 106.193C26.7514 107.47 26.562 108.561 26.1832 109.466C25.8082 110.371 25.2704 111.062 24.5696 111.54C23.8688 112.017 23.0298 112.256 22.0526 112.256ZM22.0526 110.216C22.7192 110.216 23.2514 109.881 23.6491 109.21C24.0469 108.54 24.2438 107.534 24.2401 106.193C24.2401 105.311 24.1491 104.576 23.9673 103.989C23.7893 103.402 23.5355 102.96 23.206 102.665C22.8802 102.369 22.4957 102.222 22.0526 102.222C21.3897 102.222 20.8594 102.553 20.4616 103.216C20.0639 103.879 19.8632 104.871 19.8594 106.193C19.8594 107.087 19.9484 107.833 20.1264 108.432C20.3082 109.027 20.5639 109.473 20.8935 109.773C21.223 110.068 21.6094 110.216 22.0526 110.216ZM32.277 112V100.364H34.7372V105.165H39.7315V100.364H42.1861V112H39.7315V107.193H34.7372V112H32.277ZM46.6577 112.165C46.1009 112.165 45.6046 112.068 45.169 111.875C44.7334 111.678 44.3887 111.388 44.1349 111.006C43.8849 110.619 43.7599 110.138 43.7599 109.562C43.7599 109.078 43.849 108.67 44.027 108.341C44.205 108.011 44.4474 107.746 44.7543 107.545C45.0611 107.345 45.4096 107.193 45.7997 107.091C46.1937 106.989 46.6065 106.917 47.0384 106.875C47.5459 106.822 47.955 106.773 48.2656 106.727C48.5762 106.678 48.8016 106.606 48.9418 106.511C49.0819 106.417 49.152 106.277 49.152 106.091V106.057C49.152 105.697 49.0384 105.419 48.8111 105.222C48.5876 105.025 48.2694 104.926 47.8565 104.926C47.4209 104.926 47.0743 105.023 46.8168 105.216C46.5592 105.405 46.3887 105.644 46.3054 105.932L44.0668 105.75C44.1804 105.22 44.4039 104.761 44.7372 104.375C45.0705 103.985 45.5005 103.686 46.027 103.477C46.5573 103.265 47.1709 103.159 47.8679 103.159C48.3527 103.159 48.8168 103.216 49.2599 103.33C49.7069 103.443 50.1027 103.619 50.4474 103.858C50.7959 104.097 51.0705 104.403 51.2713 104.778C51.4721 105.15 51.5724 105.595 51.5724 106.114V112H49.277V110.79H49.2088C49.0687 111.062 48.8812 111.303 48.6463 111.511C48.4115 111.716 48.1293 111.877 47.7997 111.994C47.4702 112.108 47.0895 112.165 46.6577 112.165ZM47.3509 110.494C47.7069 110.494 48.0213 110.424 48.294 110.284C48.5668 110.14 48.7808 109.947 48.9361 109.705C49.0914 109.462 49.169 109.187 49.169 108.881V107.955C49.0933 108.004 48.9891 108.049 48.8565 108.091C48.7277 108.129 48.5819 108.165 48.419 108.199C48.2562 108.229 48.0933 108.258 47.9304 108.284C47.7675 108.307 47.6198 108.328 47.4872 108.347C47.2031 108.388 46.955 108.455 46.7429 108.545C46.5308 108.636 46.366 108.759 46.2486 108.915C46.1312 109.066 46.0724 109.256 46.0724 109.483C46.0724 109.812 46.1918 110.064 46.4304 110.239C46.6728 110.409 46.9796 110.494 47.3509 110.494ZM53.4503 112V103.273H55.7969V104.795H55.8878C56.0469 104.254 56.3139 103.845 56.6889 103.568C57.0639 103.288 57.4957 103.148 57.9844 103.148C58.1056 103.148 58.2363 103.155 58.3764 103.17C58.5166 103.186 58.6397 103.206 58.7457 103.233V105.381C58.6321 105.347 58.4749 105.316 58.2741 105.29C58.0734 105.263 57.8897 105.25 57.723 105.25C57.367 105.25 57.0488 105.328 56.7685 105.483C56.492 105.634 56.2723 105.847 56.1094 106.119C55.9503 106.392 55.8707 106.706 55.8707 107.062V112H53.4503ZM59.9972 112V103.273H62.4176V112H59.9972ZM61.2131 102.148C60.8532 102.148 60.5445 102.028 60.2869 101.79C60.0331 101.547 59.9062 101.258 59.9062 100.92C59.9062 100.587 60.0331 100.301 60.2869 100.062C60.5445 99.8201 60.8532 99.6989 61.2131 99.6989C61.5729 99.6989 61.8797 99.8201 62.1335 100.062C62.3911 100.301 62.5199 100.587 62.5199 100.92C62.5199 101.258 62.3911 101.547 62.1335 101.79C61.8797 102.028 61.5729 102.148 61.2131 102.148Z" fill="black"/>
</svg>
