<svg width="140" height="128" viewBox="0 0 140 128" fill="none" xmlns="http://www.w3.org/2000/svg">
<rect width="140" height="128" rx="10" fill="#61A2B5"/>
<path d="M13.3239 15.7102C13.2784 15.2519 13.0833 14.8958 12.7386 14.642C12.3939 14.3883 11.9261 14.2614 11.3352 14.2614C10.9337 14.2614 10.5947 14.3182 10.3182 14.4318C10.0417 14.5417 9.82955 14.6951 9.68182 14.892C9.53788 15.089 9.46591 15.3125 9.46591 15.5625C9.45833 15.7708 9.50189 15.9527 9.59659 16.108C9.69508 16.2633 9.82955 16.3977 10 16.5114C10.1705 16.6212 10.3674 16.7178 10.5909 16.8011C10.8144 16.8807 11.053 16.9489 11.3068 17.0057L12.3523 17.2557C12.8598 17.3693 13.3258 17.5208 13.75 17.7102C14.1742 17.8996 14.5417 18.1326 14.8523 18.4091C15.1629 18.6856 15.4034 19.0114 15.5739 19.3864C15.7481 19.7614 15.8371 20.1913 15.8409 20.6761C15.8371 21.3883 15.6553 22.0057 15.2955 22.5284C14.9394 23.0473 14.4242 23.4508 13.75 23.7386C13.0795 24.0227 12.2708 24.1648 11.3239 24.1648C10.3845 24.1648 9.56629 24.0208 8.86932 23.733C8.17614 23.4451 7.63447 23.0189 7.24432 22.4545C6.85795 21.8864 6.6553 21.1837 6.63636 20.3466H9.01705C9.04356 20.7367 9.1553 21.0625 9.35227 21.3239C9.55303 21.5814 9.82008 21.7765 10.1534 21.9091C10.4905 22.0379 10.8712 22.1023 11.2955 22.1023C11.7121 22.1023 12.0739 22.0417 12.3807 21.9205C12.6913 21.7992 12.9318 21.6307 13.1023 21.4148C13.2727 21.1989 13.358 20.9508 13.358 20.6705C13.358 20.4091 13.2803 20.1894 13.125 20.0114C12.9735 19.8333 12.75 19.6818 12.4545 19.5568C12.1629 19.4318 11.8049 19.3182 11.3807 19.2159L10.1136 18.8977C9.13258 18.6591 8.35795 18.286 7.78977 17.7784C7.22159 17.2708 6.93939 16.5871 6.94318 15.7273C6.93939 15.0227 7.12689 14.4072 7.50568 13.8807C7.88826 13.3542 8.41288 12.9432 9.07955 12.6477C9.74621 12.3523 10.5038 12.2045 11.3523 12.2045C12.2159 12.2045 12.9697 12.3523 13.6136 12.6477C14.2614 12.9432 14.7652 13.3542 15.125 13.8807C15.4848 14.4072 15.6705 15.017 15.6818 15.7102H13.3239ZM17.4957 12.3636H20.5298L23.7344 20.1818H23.8707L27.0753 12.3636H30.1094V24H27.723V16.4261H27.6264L24.6151 23.9432H22.9901L19.9787 16.3977H19.8821V24H17.4957V12.3636ZM38.4489 15.7102C38.4034 15.2519 38.2083 14.8958 37.8636 14.642C37.5189 14.3883 37.0511 14.2614 36.4602 14.2614C36.0587 14.2614 35.7197 14.3182 35.4432 14.4318C35.1667 14.5417 34.9545 14.6951 34.8068 14.892C34.6629 15.089 34.5909 15.3125 34.5909 15.5625C34.5833 15.7708 34.6269 15.9527 34.7216 16.108C34.8201 16.2633 34.9545 16.3977 35.125 16.5114C35.2955 16.6212 35.4924 16.7178 35.7159 16.8011C35.9394 16.8807 36.178 16.9489 36.4318 17.0057L37.4773 17.2557C37.9848 17.3693 38.4508 17.5208 38.875 17.7102C39.2992 17.8996 39.6667 18.1326 39.9773 18.4091C40.2879 18.6856 40.5284 19.0114 40.6989 19.3864C40.8731 19.7614 40.9621 20.1913 40.9659 20.6761C40.9621 21.3883 40.7803 22.0057 40.4205 22.5284C40.0644 23.0473 39.5492 23.4508 38.875 23.7386C38.2045 24.0227 37.3958 24.1648 36.4489 24.1648C35.5095 24.1648 34.6913 24.0208 33.9943 23.733C33.3011 23.4451 32.7595 23.0189 32.3693 22.4545C31.983 21.8864 31.7803 21.1837 31.7614 20.3466H34.142C34.1686 20.7367 34.2803 21.0625 34.4773 21.3239C34.678 21.5814 34.9451 21.7765 35.2784 21.9091C35.6155 22.0379 35.9962 22.1023 36.4205 22.1023C36.8371 22.1023 37.1989 22.0417 37.5057 21.9205C37.8163 21.7992 38.0568 21.6307 38.2273 21.4148C38.3977 21.1989 38.483 20.9508 38.483 20.6705C38.483 20.4091 38.4053 20.1894 38.25 20.0114C38.0985 19.8333 37.875 19.6818 37.5795 19.5568C37.2879 19.4318 36.9299 19.3182 36.5057 19.2159L35.2386 18.8977C34.2576 18.6591 33.483 18.286 32.9148 17.7784C32.3466 17.2708 32.0644 16.5871 32.0682 15.7273C32.0644 15.0227 32.2519 14.4072 32.6307 13.8807C33.0133 13.3542 33.5379 12.9432 34.2045 12.6477C34.8712 12.3523 35.6288 12.2045 36.4773 12.2045C37.3409 12.2045 38.0947 12.3523 38.7386 12.6477C39.3864 12.9432 39.8902 13.3542 40.25 13.8807C40.6098 14.4072 40.7955 15.017 40.8068 15.7102H38.4489Z" fill="white"/>
<path d="M7.88636 58V54.4545L16.1705 46.7841C16.875 46.1023 17.4659 45.4886 17.9432 44.9432C18.428 44.3977 18.7955 43.8636 19.0455 43.3409C19.2955 42.8106 19.4205 42.2386 19.4205 41.625C19.4205 40.9432 19.2652 40.3561 18.9545 39.8636C18.6439 39.3636 18.2197 38.9811 17.6818 38.7159C17.1439 38.4432 16.5341 38.3068 15.8523 38.3068C15.1402 38.3068 14.5189 38.4508 13.9886 38.7386C13.4583 39.0265 13.0492 39.4394 12.7614 39.9773C12.4735 40.5152 12.3295 41.1553 12.3295 41.8977H7.65909C7.65909 40.375 8.00379 39.053 8.69318 37.9318C9.38258 36.8106 10.3485 35.9432 11.5909 35.3295C12.8333 34.7159 14.2652 34.4091 15.8864 34.4091C17.553 34.4091 19.0038 34.7045 20.2386 35.2955C21.4811 35.8788 22.447 36.6894 23.1364 37.7273C23.8258 38.7652 24.1705 39.9545 24.1705 41.2955C24.1705 42.1742 23.9962 43.0417 23.6477 43.8977C23.3068 44.7538 22.697 45.7045 21.8182 46.75C20.9394 47.7879 19.7008 49.0341 18.1023 50.4886L14.7045 53.8182V53.9773H24.4773V58H7.88636ZM37.1676 58.5114C35.2131 58.5038 33.5313 58.0227 32.1222 57.0682C30.7206 56.1136 29.6411 54.7311 28.8835 52.9205C28.1335 51.1098 27.7623 48.9318 27.7699 46.3864C27.7699 43.8485 28.1449 41.6856 28.8949 39.8977C29.6525 38.1098 30.732 36.75 32.1335 35.8182C33.5426 34.8788 35.2206 34.4091 37.1676 34.4091C39.1146 34.4091 40.7888 34.8788 42.1903 35.8182C43.5994 36.7576 44.6828 38.1212 45.4403 39.9091C46.1979 41.6894 46.5729 43.8485 46.5653 46.3864C46.5653 48.9394 46.1866 51.1212 45.429 52.9318C44.679 54.7424 43.6032 56.125 42.2017 57.0795C40.8002 58.0341 39.1222 58.5114 37.1676 58.5114ZM37.1676 54.4318C38.5009 54.4318 39.5653 53.7614 40.3608 52.4205C41.1563 51.0795 41.5502 49.0682 41.5426 46.3864C41.5426 44.6212 41.3608 43.1515 40.9972 41.9773C40.6411 40.803 40.1335 39.9205 39.4744 39.3295C38.8229 38.7386 38.054 38.4432 37.1676 38.4432C35.8419 38.4432 34.7813 39.1061 33.9858 40.4318C33.1903 41.7576 32.7888 43.7424 32.7812 46.3864C32.7812 48.1742 32.9593 49.6667 33.3153 50.8636C33.679 52.053 34.1903 52.947 34.8494 53.5455C35.5085 54.1364 36.2812 54.4318 37.1676 54.4318ZM8.02273 90V66.7273H17.2045C18.9697 66.7273 20.4735 67.0644 21.7159 67.7386C22.9583 68.4053 23.9053 69.3333 24.5568 70.5227C25.2159 71.7045 25.5455 73.0682 25.5455 74.6136C25.5455 76.1591 25.2121 77.5227 24.5455 78.7045C23.8788 79.8864 22.9129 80.8068 21.6477 81.4659C20.3902 82.125 18.8674 82.4545 17.0795 82.4545H11.2273V78.5114H16.2841C17.2311 78.5114 18.0114 78.3485 18.625 78.0227C19.2462 77.6894 19.7083 77.2311 20.0114 76.6477C20.322 76.0568 20.4773 75.3788 20.4773 74.6136C20.4773 73.8409 20.322 73.1667 20.0114 72.5909C19.7083 72.0076 19.2462 71.5568 18.625 71.2386C18.0038 70.9129 17.2159 70.75 16.2614 70.75H12.9432V90H8.02273ZM36.3239 90.3409C34.5284 90.3409 32.983 89.9773 31.6875 89.25C30.3996 88.5152 29.4072 87.4773 28.7102 86.1364C28.0133 84.7879 27.6648 83.1932 27.6648 81.3523C27.6648 79.5568 28.0133 77.9811 28.7102 76.625C29.4072 75.2689 30.3883 74.2121 31.6534 73.4545C32.9261 72.697 34.4186 72.3182 36.1307 72.3182C37.2822 72.3182 38.3542 72.5038 39.3466 72.875C40.3466 73.2386 41.2178 73.7879 41.9602 74.5227C42.7102 75.2576 43.2936 76.1818 43.7102 77.2955C44.1269 78.4015 44.3352 79.697 44.3352 81.1818V82.5114H29.5966V79.5114H39.7784C39.7784 78.8144 39.6269 78.197 39.3239 77.6591C39.0208 77.1212 38.6004 76.7008 38.0625 76.3977C37.5322 76.0871 36.9148 75.9318 36.2102 75.9318C35.4754 75.9318 34.8239 76.1023 34.2557 76.4432C33.6951 76.7765 33.2557 77.2273 32.9375 77.7955C32.6193 78.3561 32.4564 78.9811 32.4489 79.6705V82.5227C32.4489 83.3864 32.608 84.1326 32.9261 84.7614C33.2519 85.3902 33.7102 85.875 34.3011 86.2159C34.892 86.5568 35.5928 86.7273 36.4034 86.7273C36.9413 86.7273 37.4337 86.6515 37.8807 86.5C38.3277 86.3485 38.7102 86.1212 39.0284 85.8182C39.3466 85.5152 39.589 85.1439 39.7557 84.7045L44.233 85C44.0057 86.0758 43.5398 87.0152 42.8352 87.8182C42.1383 88.6136 41.2367 89.2348 40.1307 89.6818C39.0322 90.1212 37.7633 90.3409 36.3239 90.3409ZM62.017 77.5227L57.5852 77.7955C57.5095 77.4167 57.3466 77.0758 57.0966 76.7727C56.8466 76.4621 56.517 76.2159 56.108 76.0341C55.7064 75.8447 55.2254 75.75 54.6648 75.75C53.9148 75.75 53.2822 75.9091 52.767 76.2273C52.2519 76.5379 51.9943 76.9545 51.9943 77.4773C51.9943 77.8939 52.161 78.2462 52.4943 78.5341C52.8277 78.822 53.3996 79.053 54.2102 79.2273L57.3693 79.8636C59.0663 80.2121 60.3314 80.7727 61.1648 81.5455C61.9981 82.3182 62.4148 83.3333 62.4148 84.5909C62.4148 85.7348 62.0777 86.7386 61.4034 87.6023C60.7367 88.4659 59.8201 89.1402 58.6534 89.625C57.4943 90.1023 56.1572 90.3409 54.642 90.3409C52.3314 90.3409 50.4905 89.8598 49.1193 88.8977C47.7557 87.928 46.9564 86.6098 46.7216 84.9432L51.483 84.6932C51.6269 85.3977 51.9754 85.9356 52.5284 86.3068C53.0814 86.6705 53.7898 86.8523 54.6534 86.8523C55.5019 86.8523 56.1837 86.6894 56.6989 86.3636C57.2216 86.0303 57.4867 85.6023 57.4943 85.0795C57.4867 84.6402 57.3011 84.2803 56.9375 84C56.5739 83.7121 56.0133 83.4924 55.2557 83.3409L52.233 82.7386C50.5284 82.3977 49.2595 81.8068 48.4261 80.9659C47.6004 80.125 47.1875 79.053 47.1875 77.75C47.1875 76.6288 47.4905 75.6629 48.0966 74.8523C48.7102 74.0417 49.5701 73.4167 50.6761 72.9773C51.7898 72.5379 53.0928 72.3182 54.5852 72.3182C56.7898 72.3182 58.5246 72.7841 59.7898 73.7159C61.0625 74.6477 61.8049 75.9167 62.017 77.5227ZM70.4403 90.3295C69.3267 90.3295 68.3343 90.1364 67.4631 89.75C66.5919 89.3561 65.9025 88.7765 65.3949 88.0114C64.8949 87.2386 64.6449 86.2765 64.6449 85.125C64.6449 84.1553 64.8229 83.3409 65.179 82.6818C65.535 82.0227 66.0199 81.4924 66.6335 81.0909C67.2472 80.6894 67.9441 80.3864 68.7244 80.1818C69.5123 79.9773 70.3381 79.8333 71.2017 79.75C72.2169 79.6439 73.035 79.5455 73.6562 79.4545C74.2775 79.3561 74.7282 79.2121 75.0085 79.0227C75.2888 78.8333 75.429 78.553 75.429 78.1818V78.1136C75.429 77.3939 75.2017 76.8371 74.7472 76.4432C74.3002 76.0492 73.6638 75.8523 72.8381 75.8523C71.9669 75.8523 71.2737 76.0455 70.7585 76.4318C70.2434 76.8106 69.9025 77.2879 69.7358 77.8636L65.2585 77.5C65.4858 76.4394 65.9328 75.5227 66.5994 74.75C67.2661 73.9697 68.1259 73.3712 69.179 72.9545C70.2396 72.5303 71.4669 72.3182 72.8608 72.3182C73.8305 72.3182 74.7585 72.4318 75.6449 72.6591C76.5388 72.8864 77.3305 73.2386 78.0199 73.7159C78.7169 74.1932 79.2661 74.8068 79.6676 75.5568C80.0691 76.2992 80.2699 77.1894 80.2699 78.2273V90H75.679V87.5795H75.5426C75.2623 88.125 74.8873 88.6061 74.4176 89.0227C73.9479 89.4318 73.3835 89.7538 72.7244 89.9886C72.0653 90.2159 71.304 90.3295 70.4403 90.3295ZM71.8267 86.9886C72.5388 86.9886 73.1676 86.8485 73.7131 86.5682C74.2585 86.2803 74.6866 85.8939 74.9972 85.4091C75.3078 84.9242 75.4631 84.375 75.4631 83.7614V81.9091C75.3116 82.0076 75.1032 82.0985 74.8381 82.1818C74.5805 82.2576 74.2888 82.3295 73.9631 82.3977C73.6373 82.4583 73.3116 82.5152 72.9858 82.5682C72.66 82.6136 72.3646 82.6553 72.0994 82.6932C71.5313 82.7765 71.035 82.9091 70.6108 83.0909C70.1866 83.2727 69.857 83.5189 69.6222 83.8295C69.3873 84.1326 69.2699 84.5114 69.2699 84.9659C69.2699 85.625 69.5085 86.1288 69.9858 86.4773C70.4706 86.8182 71.0843 86.9886 71.8267 86.9886ZM88.8665 79.9091V90H84.0256V72.5455H88.6392V75.625H88.8438C89.2301 74.6098 89.8778 73.8068 90.7869 73.2159C91.696 72.6174 92.7983 72.3182 94.0938 72.3182C95.3059 72.3182 96.3627 72.5833 97.2642 73.1136C98.1657 73.6439 98.8665 74.4015 99.3665 75.3864C99.8665 76.3636 100.116 77.5303 100.116 78.8864V90H95.2756V79.75C95.2831 78.6818 95.0104 77.8485 94.4574 77.25C93.9044 76.6439 93.143 76.3409 92.1733 76.3409C91.5218 76.3409 90.946 76.4811 90.446 76.7614C89.9536 77.0417 89.5672 77.4508 89.2869 77.9886C89.0142 78.5189 88.8741 79.1591 88.8665 79.9091Z" fill="#7200B5"/>
<path d="M11.2443 112.159C10.3958 112.159 9.64015 112.013 8.97727 111.722C8.31818 111.426 7.79735 111.021 7.41477 110.506C7.03598 109.987 6.84091 109.388 6.82955 108.71H9.30682C9.32197 108.994 9.41477 109.244 9.58523 109.46C9.75947 109.672 9.99053 109.837 10.2784 109.955C10.5663 110.072 10.8902 110.131 11.25 110.131C11.625 110.131 11.9564 110.064 12.2443 109.932C12.5322 109.799 12.7576 109.616 12.9205 109.381C13.0833 109.146 13.1648 108.875 13.1648 108.568C13.1648 108.258 13.0777 107.983 12.9034 107.744C12.733 107.502 12.4867 107.312 12.1648 107.176C11.8466 107.04 11.4678 106.972 11.0284 106.972H9.94318V105.165H11.0284C11.3996 105.165 11.7273 105.1 12.0114 104.972C12.2992 104.843 12.5227 104.665 12.6818 104.438C12.8409 104.206 12.9205 103.938 12.9205 103.631C12.9205 103.339 12.8504 103.083 12.7102 102.864C12.5739 102.64 12.3807 102.466 12.1307 102.341C11.8845 102.216 11.5966 102.153 11.267 102.153C10.9337 102.153 10.6288 102.214 10.3523 102.335C10.0758 102.453 9.85417 102.621 9.6875 102.841C9.52083 103.061 9.43182 103.318 9.42045 103.614H7.0625C7.07386 102.943 7.26515 102.352 7.63636 101.841C8.00758 101.33 8.50758 100.93 9.13636 100.642C9.76894 100.35 10.483 100.205 11.2784 100.205C12.0814 100.205 12.7841 100.35 13.3864 100.642C13.9886 100.934 14.4564 101.328 14.7898 101.824C15.1269 102.316 15.2936 102.869 15.2898 103.483C15.2936 104.134 15.0909 104.678 14.6818 105.114C14.2765 105.549 13.7481 105.826 13.0966 105.943V106.034C13.9527 106.144 14.6042 106.441 15.0511 106.926C15.5019 107.407 15.7254 108.009 15.7216 108.733C15.7254 109.396 15.5341 109.985 15.1477 110.5C14.7652 111.015 14.2367 111.42 13.5625 111.716C12.8883 112.011 12.1155 112.159 11.2443 112.159ZM21.2614 112V100.364H23.7216V105.165H28.7159V100.364H31.1705V112H28.7159V107.193H23.7216V112H21.2614ZM35.642 112.165C35.0852 112.165 34.589 112.068 34.1534 111.875C33.7178 111.678 33.3731 111.388 33.1193 111.006C32.8693 110.619 32.7443 110.138 32.7443 109.562C32.7443 109.078 32.8333 108.67 33.0114 108.341C33.1894 108.011 33.4318 107.746 33.7386 107.545C34.0455 107.345 34.3939 107.193 34.7841 107.091C35.178 106.989 35.5909 106.917 36.0227 106.875C36.5303 106.822 36.9394 106.773 37.25 106.727C37.5606 106.678 37.786 106.606 37.9261 106.511C38.0663 106.417 38.1364 106.277 38.1364 106.091V106.057C38.1364 105.697 38.0227 105.419 37.7955 105.222C37.572 105.025 37.2538 104.926 36.8409 104.926C36.4053 104.926 36.0587 105.023 35.8011 105.216C35.5436 105.405 35.3731 105.644 35.2898 105.932L33.0511 105.75C33.1648 105.22 33.3883 104.761 33.7216 104.375C34.0549 103.985 34.4848 103.686 35.0114 103.477C35.5417 103.265 36.1553 103.159 36.8523 103.159C37.3371 103.159 37.8011 103.216 38.2443 103.33C38.6913 103.443 39.0871 103.619 39.4318 103.858C39.7803 104.097 40.0549 104.403 40.2557 104.778C40.4564 105.15 40.5568 105.595 40.5568 106.114V112H38.2614V110.79H38.1932C38.053 111.062 37.8655 111.303 37.6307 111.511C37.3958 111.716 37.1136 111.877 36.7841 111.994C36.4545 112.108 36.0739 112.165 35.642 112.165ZM36.3352 110.494C36.6913 110.494 37.0057 110.424 37.2784 110.284C37.5511 110.14 37.7652 109.947 37.9205 109.705C38.0758 109.462 38.1534 109.187 38.1534 108.881V107.955C38.0777 108.004 37.9735 108.049 37.8409 108.091C37.7121 108.129 37.5663 108.165 37.4034 108.199C37.2405 108.229 37.0777 108.258 36.9148 108.284C36.7519 108.307 36.6042 108.328 36.4716 108.347C36.1875 108.388 35.9394 108.455 35.7273 108.545C35.5152 108.636 35.3504 108.759 35.233 108.915C35.1155 109.066 35.0568 109.256 35.0568 109.483C35.0568 109.812 35.1761 110.064 35.4148 110.239C35.6572 110.409 35.964 110.494 36.3352 110.494ZM42.4347 112V103.273H44.7812V104.795H44.8722C45.0313 104.254 45.2983 103.845 45.6733 103.568C46.0483 103.288 46.4801 103.148 46.9688 103.148C47.09 103.148 47.2206 103.155 47.3608 103.17C47.5009 103.186 47.6241 103.206 47.7301 103.233V105.381C47.6165 105.347 47.4593 105.316 47.2585 105.29C47.0578 105.263 46.8741 105.25 46.7074 105.25C46.3513 105.25 46.0331 105.328 45.7528 105.483C45.4763 105.634 45.2566 105.847 45.0938 106.119C44.9347 106.392 44.8551 106.706 44.8551 107.062V112H42.4347ZM48.9815 112V103.273H51.402V112H48.9815ZM50.1974 102.148C49.8376 102.148 49.5289 102.028 49.2713 101.79C49.0175 101.547 48.8906 101.258 48.8906 100.92C48.8906 100.587 49.0175 100.301 49.2713 100.062C49.5289 99.8201 49.8376 99.6989 50.1974 99.6989C50.5573 99.6989 50.8641 99.8201 51.1179 100.062C51.3755 100.301 51.5043 100.587 51.5043 100.92C51.5043 101.258 51.3755 101.547 51.1179 101.79C50.8641 102.028 50.5573 102.148 50.1974 102.148Z" fill="black"/>
</svg>
