<?xml version="1.0" encoding="UTF-8"?>
<svg version="1.1" xmlns="http://www.w3.org/2000/svg" width="500" height="500">
<path d="M0 0 C165 0 330 0 500 0 C500 165 500 330 500 500 C335 500 170 500 0 500 C0 335 0 170 0 0 Z " fill="#FEFEFF" transform="translate(0,0)"/>
<path d="M0 0 C1.5778125 1.15242188 1.5778125 1.15242188 3.1875 2.328125 C12.81647202 9.49294519 21.52180521 17.50786081 30 26 C30.5878125 26.54140625 31.175625 27.0828125 31.78125 27.640625 C43.91698007 39.00408133 60.58770054 58.43826045 64 75 C65.27230469 74.89558594 65.27230469 74.89558594 66.5703125 74.7890625 C78.65013393 74.23153228 88.16750976 77.34914755 97.5 85.3125 C106.78257947 94.44290604 112.06438216 104.82982079 112.5 118 C112.07801643 130.77203595 106.63113232 143.4992459 97.25 152.3359375 C86.40923291 160.35358816 74.39271287 164.02161338 61 163 C49.24915905 160.86044432 38.3254796 154.19345828 31.20703125 144.578125 C29.65202084 142.10546647 28.29100957 139.61925979 27 137 C26.6596875 136.33871094 26.319375 135.67742187 25.96875 134.99609375 C22.00039606 125.60799716 22.50395621 111.64226493 25.94921875 102.171875 C27.8942799 98.15159992 30.32201427 94.5636188 33 91 C33.7425 90.01 34.485 89.02 35.25 88 C37 86 37 86 39 85 C35.85665543 68.79094605 19.07848527 52.49328035 8 41 C7.34902344 40.29746094 6.69804687 39.59492187 6.02734375 38.87109375 C-2.95487978 29.4311773 -13.81241867 21.60008105 -25 15 C-25.57943359 14.65227539 -26.15886719 14.30455078 -26.75585938 13.94628906 C-51.22087842 -0.66934149 -77.64662458 -8.63721871 -106 -11 C-106 6.16 -106 23.32 -106 41 C-101.05 41.66 -96.1 42.32 -91 43 C-87.95842904 43.76541184 -85.1737056 44.52048975 -82.25 45.5625 C-81.51177002 45.81862061 -80.77354004 46.07474121 -80.01293945 46.33862305 C-45.04804458 58.88833239 -18.6554967 81.96655254 -2.3359375 115.41015625 C11.46272612 146.22717167 13.38293144 180.96149679 1.33764648 212.69311523 C0.76560182 214.18441346 0.18586828 215.67280919 -0.4050293 217.15673828 C-1.15358793 219.15300876 -1.15358793 219.15300876 -1 222 C0.79789794 223.46748255 0.79789794 223.46748255 3.23046875 224.7578125 C4.16503906 225.29269287 5.09960938 225.82757324 6.0625 226.37866211 C7.09375 226.95495361 8.125 227.53124512 9.1875 228.125 C11.37914504 229.37848883 13.57053996 230.63241506 15.76171875 231.88671875 C16.94296252 232.55819193 18.12444577 233.22924398 19.30615234 233.89990234 C25.0865562 237.18305127 30.84872288 240.49719282 36.59707642 243.83612061 C38.46052089 244.91465017 40.32997797 245.98215876 42.19995117 247.04931641 C58.65833981 256.53308892 58.65833981 256.53308892 60.85693359 262.21435547 C61.98240873 267.39781383 60.49866795 271.43917638 57.96484375 275.9453125 C50.73279317 287.18877881 42.85098223 297.66188052 33.58203125 307.30078125 C31.53804306 309.43753744 29.62124816 311.59016061 27.75 313.875 C24.52839323 317.68150944 20.80154707 320.78910653 17 324 C16.08605469 324.81339844 15.17210937 325.62679688 14.23046875 326.46484375 C5.4188878 334.2441947 -4.07813359 340.72135478 -14 347 C-14.58297852 347.37753418 -15.16595703 347.75506836 -15.76660156 348.14404297 C-40.60902033 364.12274676 -75.8188696 375.48318817 -105.47265625 375 C-106.8808595 374.99884254 -108.28906672 375.00022052 -109.69726562 375.00390625 C-111.88645717 375.00833333 -114.07135633 374.99979338 -116.26000977 374.94873047 C-124.80269189 374.45743975 -124.80269189 374.45743975 -132.17553711 377.91870117 C-133.66929965 380.21688829 -134.83625154 382.52241166 -136 385 C-144.32339439 393.97123896 -153.99929421 399.34246341 -166.26171875 400.23828125 C-179.29074617 400.52055208 -190.746787 396.68637499 -200.44921875 387.7421875 C-211.39471728 376.19966178 -213.59767782 365.41851657 -213.33984375 350.0390625 C-212.83622591 338.79229396 -207.00062974 329.53904284 -198.8671875 322.03125 C-187.4425667 312.6367883 -175.4240834 310.83391126 -161 312 C-149.66983033 314.04699268 -140.50915076 320.29684458 -133.5625 329.375 C-129.44849346 335.44886181 -126 341.55589643 -126 349 C-72.19076315 348.31879608 -25.87517571 330.31033183 12.28857422 292.01855469 C16.19593404 287.98912764 19.81585732 283.76422026 23.3125 279.375 C24.02442505 278.48675537 24.02442505 278.48675537 24.75073242 277.58056641 C27.43319789 274.19573965 27.43319789 274.19573965 28 270 C27.10023438 269.50113281 26.20046875 269.00226563 25.2734375 268.48828125 C15.93804925 263.28604294 6.71409137 257.91371275 -2.45947266 252.4309082 C-6.90515128 249.78348611 -11.32518576 247.22092504 -16 245 C-16.51046875 245.65484375 -17.0209375 246.3096875 -17.546875 246.984375 C-35.75807042 269.84523733 -57.95500913 284.75028387 -86 293 C-87.09441406 293.33 -88.18882812 293.66 -89.31640625 294 C-118.87916821 302.18782222 -153.63256041 296.95957814 -180.13720703 282.07519531 C-196.84653729 272.43064872 -211.54432837 260.66387754 -223 245 C-223 244.34 -223 243.68 -223 243 C-230.76201904 246.65566058 -238.2294078 250.76737008 -245.6875 255 C-246.66162842 255.55099365 -247.63575684 256.1019873 -248.6394043 256.66967773 C-254.02277166 259.72084414 -259.38539145 262.80410598 -264.73046875 265.921875 C-266.94524723 267.19802994 -269.16008938 268.4740744 -271.375 269.75 C-272.40197998 270.3584375 -273.42895996 270.966875 -274.48706055 271.59375 C-280.14020129 274.83127646 -285.31845852 277.62823004 -292 277 C-298.02221449 274.53895971 -300.10064452 269.51218641 -303 264 C-303.30309082 263.42507813 -303.60618164 262.85015625 -303.91845703 262.2578125 C-319.03078874 233.12412576 -326.39473878 200.56242571 -326.375 167.875 C-326.37672211 167.15127197 -326.37844421 166.42754395 -326.38021851 165.68188477 C-326.3702815 128.85847276 -315.9316657 89.74818604 -294.90844727 59.26049805 C-293.71486952 56.96737879 -293.71486952 56.96737879 -294.77661133 54.38500977 C-295.18032959 53.59795654 -295.58404785 52.81090332 -296 52 C-300.41052124 40.73224501 -302.90881631 26.67531238 -298.1015625 15.0390625 C-291.39994798 2.63394627 -282.51576051 -6.46274632 -269.21630859 -11.36938477 C-265.49997584 -12.42680793 -261.90150515 -12.40371012 -258.0625 -12.3125 C-257.26763184 -12.29904541 -256.47276367 -12.28559082 -255.65380859 -12.27172852 C-243.86550826 -11.97017861 -234.72037881 -8.97742236 -225.66796875 -0.92578125 C-215.77408209 9.61130263 -211.3569403 21.20290357 -211.625 35.52734375 C-212.73004174 45.76049073 -216.93159768 54.60316687 -224 62 C-225.00353516 63.06347656 -225.00353516 63.06347656 -226.02734375 64.1484375 C-235.24894035 73.11990038 -246.39973853 76.30377891 -259.03125 76.234375 C-263.87828936 75.851714 -268.39188131 74.49741574 -273 73 C-273.25523437 73.6909375 -273.51046875 74.381875 -273.7734375 75.09375 C-275.16342752 78.38722953 -276.8656156 81.38778218 -278.625 84.5 C-300.41586241 124.47752321 -305.10812822 173.49356999 -292.87597656 217.1652832 C-290.147924 226.327673 -286.7548248 235.21211216 -283 244 C-278.65846794 242.67780247 -274.88596768 240.98625665 -270.9296875 238.76953125 C-269.785 238.13080078 -268.6403125 237.49207031 -267.4609375 236.83398438 C-266.26560859 236.16018536 -265.07029614 235.48635714 -263.875 234.8125 C-262.7033736 234.15775806 -261.5315002 233.50345792 -260.359375 232.84960938 C-252.85453886 228.65369874 -245.41180312 224.35784221 -238 220 C-238.1868335 219.46197754 -238.37366699 218.92395508 -238.56616211 218.36962891 C-250.75168676 182.64746922 -251.6530596 146.78742124 -235.171875 112.23046875 C-230.03614289 101.96599509 -223.43856404 92.72406346 -216 84 C-215.32582031 83.18015625 -214.65164062 82.3603125 -213.95703125 81.515625 C-197.87504936 62.6507865 -173.84197305 49.8754538 -150 44 C-149.24332031 43.77570313 -148.48664063 43.55140625 -147.70703125 43.3203125 C-143.98383052 42.2353079 -140.6117487 41.91529428 -136.765625 41.953125 C-135.87133789 41.95989258 -134.97705078 41.96666016 -134.05566406 41.97363281 C-133.37729492 41.98233398 -132.69892578 41.99103516 -132 42 C-132.00888245 41.12383026 -132.01776489 40.24766052 -132.0269165 39.34494019 C-132.10715922 31.07639033 -132.16801356 22.80797178 -132.20724869 14.53912163 C-132.22809828 10.28828151 -132.25636734 6.0377639 -132.30175781 1.78710938 C-132.34531017 -2.31723055 -132.36915688 -6.42126083 -132.37950897 -10.52581406 C-132.38688357 -12.08949532 -132.40128466 -13.65316017 -132.42292023 -15.21670914 C-132.45208062 -17.41193126 -132.45595097 -19.60588401 -132.45410156 -21.80126953 C-132.46298401 -23.04925323 -132.47186646 -24.29723694 -132.48101807 -25.58303833 C-131.90471983 -29.67683257 -130.57920831 -31.80444292 -128 -35 C-97.6115338 -55.25897747 -24.97513922 -18.30564181 0 0 Z " fill="#A252FF" transform="translate(356,68)"/>
<path d="M0 0 C22.01120373 18.53325761 36.40911275 43.00278987 39 72 C39.68273131 83.38688727 38.84779993 93.92933187 36 105 C35.73316406 106.07507813 35.46632813 107.15015625 35.19140625 108.2578125 C27.88142473 134.70370119 10.42615488 156.51468547 -13.22729492 170.07226562 C-21.48863743 174.65516912 -29.89482888 177.58443789 -39 180 C-40.11632812 180.3196875 -41.23265625 180.639375 -42.3828125 180.96875 C-67.09451062 187.27811973 -93.1033373 181.49274844 -115.0390625 169.3125 C-138.94535333 154.76670051 -155.69159273 132.86473573 -162.76904297 105.73852539 C-168.38840522 81.94585279 -166.44189878 56.71203685 -155 35 C-154.35804688 33.68902344 -154.35804688 33.68902344 -153.703125 32.3515625 C-141.96362073 9.33421985 -120.57609864 -8.88673667 -96 -17 C-63.61162843 -26.98641457 -26.50973628 -21.6254324 0 0 Z " fill="#FEFEFF" transform="translate(300,156)"/>
<path d="M0 0 C10.76095791 8.40943165 20.23513943 19.57872032 22.7109375 33.4140625 C24.41458551 48.65480552 22.23377568 62.66610702 12.6171875 75.02734375 C12.08351563 75.67832031 11.54984375 76.32929688 11 77 C10.0409375 78.36125 10.0409375 78.36125 9.0625 79.75 C0.20985746 89.40742823 -12.51831248 95.41862563 -25.50390625 96.21484375 C-40.02204983 96.58109359 -52.44125104 93.0261906 -63.8359375 83.671875 C-75.17326758 72.84523547 -81.93733638 58.79636297 -82.3125 43 C-82.16230071 28.23040287 -75.54031326 15.97447945 -65.60546875 5.390625 C-47.03991982 -11.64403159 -20.93816735 -14.10184038 0 0 Z " fill="#9F1EFF" transform="translate(266,193)"/>
<path d="M0 0 C6.73761977 4.34591059 11.78447425 10.34836251 13.8046875 18.1640625 C14.98309714 26.64615688 13.19773383 33.0945702 8.484375 40.13671875 C4.27775508 45.55015586 -0.79545338 48.03077613 -7.1953125 50.1640625 C-14.67393203 50.91192445 -20.75856775 50.16914812 -27.1953125 46.1640625 C-30.0078125 43.7265625 -30.0078125 43.7265625 -32.1953125 41.1640625 C-32.9171875 40.3390625 -33.6390625 39.5140625 -34.3828125 38.6640625 C-39.47687068 31.63777535 -39.11922523 23.45474843 -38.1953125 15.1640625 C-35.51846724 8.24808507 -29.51942067 2.31873756 -22.90625 -0.9765625 C-16.00480832 -3.1643394 -6.66367562 -3.06014288 0 0 Z " fill="#FEFCFF" transform="translate(249.1953125,212.8359375)"/>
<path d="M0 0 C4.54848531 3.10886763 8.09812396 6.54437187 9.875 11.875 C10.44038237 18.43343552 9.30214407 23.21518878 5.875 28.875 C1.51154131 33.35328655 -2.92971133 34.66592489 -9.0625 35.25 C-14.25769562 35.09136807 -17.98171589 32.99613131 -21.63671875 29.37890625 C-26.27053703 24.05466232 -26.47192745 19.63004432 -26.40625 12.82421875 C-25.91015448 7.62210606 -23.40350724 5.08621739 -19.75 1.625 C-13.4491587 -2.57556087 -6.72383131 -3.93066079 0 0 Z " fill="#FCFCFF" transform="translate(432.125,170.125)"/>
<path d="M0 0 C4.81225197 3.52115998 8.90387835 8.15125453 9.96875 14.171875 C10.2013374 20.25791192 9.10457671 23.52770433 5.16796875 28.18359375 C4.63816406 28.74175781 4.10835937 29.29992187 3.5625 29.875 C3.05847656 30.41898437 2.55445313 30.96296875 2.03515625 31.5234375 C-1.0604661 34.36451265 -4.81516778 34.81842434 -8.875 35.1875 C-14.78366632 34.66919594 -18.79964821 32.90099872 -22.75 28.5 C-26.31053123 23.92081412 -27.65360532 20.79751446 -27.3125 14.9375 C-26.51703542 8.8449645 -24.02571494 5.01748576 -19.4375 1 C-13.67952951 -2.85522862 -6.31312264 -2.06611287 0 0 Z " fill="#FDFBFF" transform="translate(195.4375,407.125)"/>
<path d="M0 0 C4.31633181 3.18586395 7.91120739 6.79612218 9.625 11.9375 C10.47900273 18.0131194 9.54474154 22.70021854 6.30078125 27.91796875 C2.83303547 32.097047 -1.39289852 34.37897932 -6.7109375 35.375 C-12.35755818 35.68334789 -15.83575669 34.23067652 -20.375 30.9375 C-25.72132284 25.15769153 -26.89596511 20.69332396 -26.75390625 12.91796875 C-26.0152825 7.1079696 -22.89267676 4.38114375 -18.8125 0.5 C-12.74541755 -2.25776475 -6.30482038 -1.98485086 0 0 Z " fill="#FDFCFF" transform="translate(108.375,83.0625)"/>
</svg>
